<?xml version="1.0" encoding="UTF-8" standalone="no"?>
<svg
   xmlns:dc="http://purl.org/dc/elements/1.1/"
   xmlns:cc="http://creativecommons.org/ns#"
   xmlns:rdf="http://www.w3.org/1999/02/22-rdf-syntax-ns#"
   xmlns:svg="http://www.w3.org/2000/svg"
   xmlns="http://www.w3.org/2000/svg"
   xmlns:sodipodi="http://sodipodi.sourceforge.net/DTD/sodipodi-0.dtd"
   xmlns:inkscape="http://www.inkscape.org/namespaces/inkscape"
   width="424.12708mm"
   height="106.89166mm"
   viewBox="0 0 424.12708 106.89166"
   version="1.1"
   id="svg8"
   inkscape:version="1.0.1 (3bc2e813f5, 2020-09-07)"
   sodipodi:docname="logo.svg">
  <defs
     id="defs2" />
  <sodipodi:namedview
     id="base"
     pagecolor="#ffffff"
     bordercolor="#666666"
     borderopacity="1.0"
     inkscape:pageopacity="0.0"
     inkscape:pageshadow="2"
     inkscape:zoom="1.979899"
     inkscape:cx="648.41823"
     inkscape:cy="304.21362"
     inkscape:document-units="mm"
     inkscape:current-layer="layer2"
     inkscape:document-rotation="0"
     showgrid="false"
     fit-margin-top="0"
     fit-margin-left="0"
     fit-margin-right="0"
     fit-margin-bottom="0"
     inkscape:window-width="3019"
     inkscape:window-height="1573"
     inkscape:window-x="663"
     inkscape:window-y="129"
     inkscape:window-maximized="0" />
  <metadata
     id="metadata5">
    <rdf:RDF>
      <cc:Work
         rdf:about="">
        <dc:format>image/svg+xml</dc:format>
        <dc:type
           rdf:resource="http://purl.org/dc/dcmitype/StillImage" />
        <dc:title />
      </cc:Work>
    </rdf:RDF>
  </metadata>
  <g
     inkscape:label="Transparent"
     inkscape:groupmode="layer"
     id="layer1"
     transform="translate(206.79078,123.52261)"
     style="display:inline;mix-blend-mode:normal">
    <rect
       style="opacity:1;fill:#ffffff;fill-opacity:0.5;stroke:none;stroke-width:1.68268;stroke-linecap:butt;stroke-linejoin:round;stroke-miterlimit:0;stroke-dasharray:3.36536, 3.36536;stroke-dashoffset:0;stroke-opacity:1"
       id="rect849"
       width="424.12711"
       height="59.317684"
       x="-206.79376"
       y="-123.51672" />
  </g>
  <g
     inkscape:groupmode="layer"
     id="layer2"
     inkscape:label="Solid"
     style="opacity:1">
    <rect
       style="fill-opacity:1;stroke-width:3.64896;stroke-linejoin:round;stroke-miterlimit:0;stroke-dasharray:7.29793, 7.29793000000000003;fill:#eeeeee"
       id="rect832"
       width="412.75003"
       height="38.893757"
       x="5.553268"
       y="61.389214" />
  </g>
  <g
     inkscape:groupmode="layer"
     id="layer3"
     inkscape:label="Top"
     sodipodi:insensitive="true"
     style="display:inline">
    <path
       style="fill:#000000;fill-opacity:1;stroke-width:0.264583"
       d="M -0.00298195,53.451715 V 0.00588637 H 212.06057 424.12411 V 53.451715 106.89755 H 212.06057 -0.00298195 Z M 418.30328,80.836091 V 61.389215 H 211.92828 5.553268 v 19.270486 c 0,10.598769 0.0794,19.349859 0.17639,19.446879 0.097,0.097 92.96576,0.17639 206.375022,0.17639 h 206.1986 z M 252.74026,97.983914 c 0.4323,-0.112972 0.46302,-0.909524 0.46302,-12.007848 0,-7.748177 -0.0921,-11.886851 -0.26459,-11.886851 -0.14552,0 -0.26458,-0.119062 -0.26458,-0.264583 0,-0.148696 0.73811,-0.264583 1.68519,-0.264583 h 1.68515 l 0.16402,0.992187 c 0.0902,0.545703 0.16528,4.316564 0.1669,8.379688 0.003,6.386179 0.0601,7.450664 0.42465,7.853511 0.23194,0.256307 0.58913,0.40177 0.79375,0.323254 0.30867,-0.118451 0.37201,-1.55421 0.37201,-8.433207 0,-5.569194 -0.0923,-8.347509 -0.28125,-8.464278 -0.15471,-0.09561 -0.51189,0.03488 -0.79375,0.289975 -0.60955,0.55163 -0.69726,0.07518 -0.0967,-0.525356 0.46791,-0.4679 1.49751,-0.543245 2.21032,-0.161751 2.65526,1.421051 2.79959,15.553471 0.18093,17.715596 -0.65141,0.537834 -2.01658,0.472734 -2.44758,-0.116716 -0.1977,-0.270348 -0.3637,-0.409255 -0.36889,-0.308681 -0.005,0.100573 -0.01,1.55208 -0.01,3.22557 0,1.673489 0.004,3.153489 0.01,3.288889 0.005,0.135401 0.27734,0.297778 0.60476,0.360844 0.32742,0.06306 -0.59531,0.117065 -2.05052,0.120002 -1.45521,0.0029 -2.43747,-0.04911 -2.18281,-0.115662 z M 141.15223,91.893978 c -0.83157,-0.205086 -1.74299,-1.162669 -2.34039,-2.458929 -0.47753,-1.036167 -0.5623,-1.830115 -0.65345,-6.120056 -0.1193,-5.61513 0.168,-7.22742 1.57309,-8.827723 0.70218,-0.799743 0.97643,-0.927221 1.99472,-0.927221 0.64934,0 1.40717,0.121253 1.68408,0.269449 0.83167,0.445092 1.78974,2.395106 2.12226,4.319537 0.43794,2.534486 0.19386,9.435135 -0.39082,11.049461 -0.72415,1.9994 -2.35209,3.09931 -3.98949,2.695482 z m 1.45687,-0.874525 c 0.1906,-0.356137 0.25934,-3.197248 0.20774,-8.586091 -0.081,-8.46444 -0.17146,-9.095889 -1.20887,-8.44177 -0.41289,0.260342 -0.46231,1.06526 -0.5257,8.561303 -0.0707,8.36445 -0.008,8.998821 0.8868,8.998821 0.19534,0 0.48335,-0.239517 0.64003,-0.532263 z m 13.86653,0.688518 c -1.0398,-0.456766 -1.8724,-1.515804 -2.28212,-2.902776 -0.19868,-0.67256 -0.32567,-2.913676 -0.33163,-5.852438 -0.011,-5.411642 0.29961,-6.848967 1.8307,-8.47239 0.75326,-0.798692 1.03339,-0.920318 2.11964,-0.920318 1.05805,0 1.36996,0.126637 2.01643,0.818684 1.06417,1.139201 1.56421,3.049633 1.56421,5.976213 v 2.46552 h -2.40552 -2.40551 l 0.0904,3.990398 c 0.0793,3.499517 0.15001,4.033941 0.57493,4.344366 0.36043,0.263318 0.68047,0.285662 1.24965,0.08724 1.3009,-0.453496 1.96753,-1.940052 2.59028,-5.776175 l 0.23624,-1.455208 0.0348,1.546778 c 0.0952,4.237567 -2.31759,7.276817 -4.88247,6.150102 z m 1.94738,-13.580507 c -0.0678,-3.875384 -0.10831,-4.170646 -0.58454,-4.262105 -0.99572,-0.19123 -1.20811,0.624502 -1.20811,4.640051 v 3.785889 h 0.93276 0.93276 z m 4.56976,9.720085 c -0.003,-2.913544 0.081,-4.233616 0.25217,-3.96875 0.14107,0.218281 0.26007,0.813594 0.26444,1.322917 0.0122,1.414116 0.7449,4.223885 1.36183,5.222099 0.43352,0.701456 0.69982,0.875266 1.24375,0.811792 1.60925,-0.18779 1.40605,-2.537102 -0.6279,-7.259428 -1.81444,-4.212672 -2.24212,-5.574813 -2.24212,-7.141052 0,-1.193781 0.12324,-1.544947 0.82116,-2.339829 0.66017,-0.751893 1.01173,-0.935249 1.79321,-0.935249 0.53463,0 1.22033,0.1739 1.52379,0.386447 0.47885,0.335405 0.61768,0.336516 1.05105,0.0084 0.27464,-0.207917 0.58863,-0.381817 0.69777,-0.386448 0.10914,-0.0046 0.19844,1.658462 0.19844,3.695754 0,3.832002 -0.33276,4.94647 -0.61224,2.05052 -0.20773,-2.152443 -0.87211,-4.328615 -1.51901,-4.975516 -0.62992,-0.629923 -0.87865,-0.64189 -1.45074,-0.06981 -0.66458,0.664588 -0.38153,2.23066 0.92753,5.131721 2.4857,5.508683 2.73217,6.19184 2.85668,7.918 0.14676,2.034583 -0.32623,3.425743 -1.40507,4.132625 -1.01369,0.6642 -2.34544,0.603216 -3.14062,-0.143814 l -0.65377,-0.614185 -0.66802,0.759706 -0.66802,0.759706 -0.004,-4.365625 z m 7.9375,0 c -0.003,-2.913544 0.081,-4.233616 0.25217,-3.96875 0.14107,0.218281 0.26007,0.813594 0.26444,1.322917 0.0122,1.414116 0.7449,4.223885 1.36183,5.222099 0.43352,0.701456 0.69982,0.875266 1.24375,0.811792 1.66182,-0.193926 1.40377,-2.577623 -0.84791,-7.832389 -1.68909,-3.941839 -2.01864,-5.03864 -2.02063,-6.725107 -0.001,-1.019337 0.14874,-1.41866 0.81968,-2.182813 0.66017,-0.751893 1.01173,-0.935249 1.79321,-0.935249 0.53463,0 1.22033,0.1739 1.52379,0.386447 0.47885,0.335405 0.61768,0.336516 1.05105,0.0084 0.27464,-0.207917 0.58863,-0.381817 0.69777,-0.386448 0.10914,-0.0046 0.19844,1.658462 0.19844,3.695754 0,2.293056 -0.10079,3.704166 -0.26459,3.704166 -0.14552,0 -0.26551,-0.446484 -0.26664,-0.992187 -0.004,-1.763991 -0.95754,-5.167157 -1.59238,-5.681219 -0.73574,-0.59577 -0.86141,-0.589653 -1.45932,0.07103 -0.43653,0.482367 -0.45733,0.696831 -0.1908,1.967508 0.16452,0.784371 0.96334,2.82348 1.77515,4.531355 1.78153,3.747945 2.26348,5.288079 2.26217,7.229136 -0.001,1.822591 -0.69255,3.067707 -2.0086,3.617587 -1.05038,0.438875 -1.81121,0.300205 -2.67184,-0.486976 l -0.58039,-0.530857 -0.66802,0.759706 -0.66802,0.759706 -0.004,-4.365625 z m 16.78863,4.046429 c -0.83156,-0.205086 -1.74299,-1.162669 -2.3404,-2.458929 -0.47752,-1.036167 -0.56229,-1.830115 -0.65344,-6.120056 -0.1225,-5.765398 0.18312,-7.394014 1.66574,-8.876626 0.72718,-0.727178 1.07762,-0.878318 2.03652,-0.878318 2.0406,0 3.10267,1.334365 3.67417,4.616082 0.37052,2.127787 0.18912,9.310841 -0.27332,10.820879 -0.60245,1.967317 -2.48822,3.296761 -4.10927,2.896968 z m 1.40229,-0.659762 c 0.50665,-0.506646 0.44726,-16.339966 -0.0639,-17.028285 -0.30533,-0.41116 -0.47683,-0.455094 -0.85989,-0.220287 -0.44268,0.271338 -0.48377,0.913032 -0.54848,8.567251 -0.07,8.280784 -0.003,8.998821 0.84317,8.998821 0.17137,0 0.45445,-0.142875 0.62907,-0.3175 z m 16.1925,0.65896 c -1.24364,-0.457276 -1.32291,-0.754639 -1.32291,-4.962107 0,-2.791007 0.10051,-4.146317 0.33073,-4.459793 0.1819,-0.247679 1.2237,-0.797136 2.3151,-1.221015 l 1.98438,-0.770691 0.0757,-2.69779 c 0.0588,-2.094852 -0.0164,-2.838522 -0.33682,-3.327469 -0.65294,-0.996492 -2.41271,-0.755092 -3.04001,0.417018 -0.24048,0.449334 -0.17806,0.502774 0.56256,0.481716 1.88262,-0.05353 2.17781,2.885808 0.33623,3.348017 -1.5268,0.383201 -2.49563,-1.112137 -1.89709,-2.928012 0.4971,-1.508051 1.71609,-2.213001 3.82673,-2.213001 1.7287,0 2.5991,0.283733 3.17621,1.035404 0.2363,0.307766 0.32457,2.522763 0.33073,8.299461 0.007,6.760263 0.0649,7.901329 0.4059,8.032192 0.23154,0.08884 0.62,-0.107966 0.93035,-0.471324 l 0.53282,-0.623858 -0.30554,0.714854 c -0.72289,1.691391 -3.41979,1.917898 -4.17303,0.350488 l -0.36897,-0.767765 -0.55708,0.694396 c -0.30638,0.381918 -0.89225,0.820979 -1.30191,0.975691 -0.80896,0.30552 -0.91056,0.311841 -1.50413,0.09359 z m 2.83816,-1.585703 c 0.38963,-0.593887 0.48422,-1.445887 0.55804,-5.027084 0.0955,-4.631332 0.0268,-4.848576 -1.15928,-3.662574 -0.63497,0.634987 -0.64942,0.742871 -0.64942,4.850694 0,2.310693 0.0794,4.280638 0.1764,4.37765 0.32263,0.322654 0.60066,0.183251 1.07426,-0.538686 z m 19.65143,1.323049 c -2.09823,-1.077804 -2.91203,-4.532106 -2.90695,-12.339061 0.005,-7.5179 0.70636,-10.808648 2.65316,-12.44677 1.17136,-0.985637 2.4547,-0.941996 3.44405,0.117117 l 0.75674,0.810091 0.73848,-0.826807 0.73848,-0.82681 -0.0586,5.080318 c -0.0322,2.794175 -0.1215,5.143259 -0.19844,5.220189 -0.0769,0.07693 -0.13986,-0.539837 -0.13986,-1.370589 0,-3.436887 -1.44706,-7.808984 -2.78659,-8.419314 -0.53422,-0.243406 -0.74586,-0.210556 -1.18108,0.183314 -0.51527,0.466309 -0.53025,0.808032 -0.53025,12.097917 0,7.502644 0.097,11.799337 0.2739,12.129826 0.37954,0.70921 1.38348,0.641437 2.33296,-0.157496 1.11623,-0.939237 1.68339,-2.877526 1.89447,-6.474481 0.18503,-3.152484 0.34944,-2.679174 0.27573,0.79375 -0.10753,5.065027 -2.44587,7.898087 -5.30622,6.428806 z m 9.85422,0.159258 c -1.05775,-0.311867 -2.03655,-1.718014 -2.46785,-3.545356 -0.17267,-0.731509 -0.32078,-3.392839 -0.33136,-5.953125 -0.0175,-4.216117 0.0345,-4.765728 0.58073,-6.145541 0.74488,-1.881688 1.58345,-2.585709 3.07988,-2.585709 1.34925,0 2.30521,0.671038 3.05795,2.146559 1.37885,2.702764 1.35403,11.5736 -0.04,14.306175 -0.82185,1.610907 -2.23975,2.260412 -3.87935,1.776997 z m 1.65515,-8.940477 c 0,-7.822203 -0.0398,-8.595213 -0.45574,-8.857597 -1.04553,-0.659501 -1.13176,-0.03114 -1.13176,8.246555 0,4.322035 0.0935,8.193397 0.20778,8.603027 0.15952,0.571701 0.34398,0.725416 0.79375,0.661459 l 0.58597,-0.08332 z m 26.39068,8.940477 c -1.09072,-0.321588 -2.05353,-1.744835 -2.48787,-3.677648 -0.1899,-0.845013 -0.32682,-3.341269 -0.3265,-5.953125 0,-4.045275 0.0606,-4.650409 0.59814,-6.013249 0.74184,-1.881026 1.58057,-2.585709 3.07764,-2.585709 1.34924,0 2.30521,0.671038 3.05794,2.146559 1.37885,2.702764 1.35404,11.5736 -0.04,14.306175 -0.82184,1.610907 -2.23975,2.260412 -3.87934,1.776997 z m 1.65516,-8.940477 c 0,-7.822203 -0.0398,-8.595213 -0.45575,-8.857597 -1.04952,-0.662033 -1.13175,-0.04368 -1.13175,8.511387 0,4.46742 0.0888,8.339291 0.19724,8.60416 0.12674,0.309377 0.41056,0.451289 0.79375,0.396875 l 0.59651,-0.0847 z m 14.2875,8.926311 c -0.29104,-0.171032 -0.61664,-0.440203 -0.72356,-0.598162 -0.10692,-0.157956 -0.19621,-2.155677 -0.19844,-4.43938 -0.005,-4.793877 -0.182,-4.457264 2.98583,-5.667754 l 1.81776,-0.69461 -0.0887,-2.900469 c -0.0766,-2.505049 -0.15872,-2.951602 -0.60229,-3.275536 -0.72192,-0.527207 -1.54766,-0.466601 -2.36115,0.173299 -0.91,0.715796 -0.88183,1.03913 0.0905,1.03913 0.54325,0 0.91906,0.200517 1.21105,0.64616 0.56476,0.861928 0.40318,1.700583 -0.44992,2.335046 -1.65142,1.228236 -3.24723,-0.786003 -2.2611,-2.853971 0.66876,-1.402387 1.82327,-1.977152 3.97383,-1.978329 1.6443,-7.94e-4 1.87566,0.06837 2.57969,0.772409 l 0.7734,0.773395 v 7.957855 c 0,6.758303 0.0576,7.957852 0.38187,7.957852 0.21003,0 0.56722,-0.264618 0.79375,-0.588039 0.29499,-0.421151 0.41188,-0.471784 0.41188,-0.178411 0,0.55399 -1.02979,1.452779 -1.89987,1.658202 -0.97423,0.230007 -2.01433,-0.217969 -2.38258,-1.026181 l -0.30721,-0.67422 -0.82129,0.796039 c -0.93411,0.905367 -2.14572,1.2227 -2.92343,0.765675 z m 3.23151,-1.612961 c 0.37613,-0.692615 0.48493,-1.670563 0.5592,-5.027083 0.0995,-4.492988 0.0198,-4.73228 -1.19396,-3.591902 -0.5911,0.555311 -0.61238,0.72376 -0.61238,4.850697 0,2.351474 0.0794,4.354782 0.1764,4.451794 0.33999,0.340006 0.60772,0.169103 1.07074,-0.683506 z m 8.13917,1.552057 c -1.38158,-0.607426 -1.44881,-1.057495 -1.44881,-9.700443 0,-7.748662 -0.0118,-7.925052 -0.52916,-7.925052 -0.73398,0 -0.66316,-0.301985 0.2831,-1.20727 1.20155,-1.149498 1.87828,-2.377368 2.53788,-4.604805 l 0.59024,-1.993133 0.0143,3.638021 0.0143,3.638021 h 1.32291 c 0.72761,0 1.32292,0.119062 1.32292,0.264583 0,0.145521 -0.59698,0.264583 -1.32662,0.264583 h -1.32665 l 0.0699,8.400521 0.0699,8.400521 0.58005,0.08255 c 0.93887,0.133615 1.4846,-1.253971 1.61784,-4.113657 0.0729,-1.564468 0.21075,-2.383726 0.38317,-2.277165 0.36225,0.223882 0.0362,4.360532 -0.43058,5.46332 -0.69101,1.632503 -2.24872,2.326995 -3.74438,1.669407 z m 14.2939,0.179956 c -0.86241,-0.211579 -1.94225,-1.406512 -2.44269,-2.703055 -0.39393,-1.020569 -0.46773,-2.088478 -0.46773,-6.76802 0,-5.23512 0.034,-5.619795 0.58793,-6.655719 0.80836,-1.511702 1.76594,-2.207823 3.03702,-2.207823 1.39094,0 1.92349,0.327138 2.69994,1.658511 0.97388,1.669923 1.29828,4.143865 1.14755,8.751309 -0.14507,4.435334 -0.52168,5.985319 -1.72963,7.118969 -0.74208,0.696415 -1.91646,1.030533 -2.83239,0.805828 z m 1.45687,-0.875213 c 0.19058,-0.356137 0.25932,-3.197248 0.20773,-8.586091 -0.081,-8.46444 -0.17145,-9.095889 -1.20886,-8.44177 -0.41291,0.260342 -0.46233,1.06526 -0.5257,8.561303 -0.0708,8.36445 -0.008,8.998821 0.8868,8.998821 0.19535,0 0.48335,-0.239517 0.64003,-0.532263 z m -206.57747,0.175713 c 0.36861,-0.341625 0.74132,-0.966703 0.82823,-1.389063 0.0869,-0.422362 0.75893,-5.530429 1.49337,-11.351262 0.73444,-5.820834 1.39341,-10.851225 1.46439,-11.178647 0.10377,-0.478631 0.30958,-0.595312 1.05006,-0.595312 0.66212,0 0.921,0.117239 0.921,0.417092 0,0.478353 2.5601,21.694759 2.79909,23.196971 0.096,0.603586 0.30417,0.992187 0.53146,0.992187 0.20549,0 0.37362,0.119063 0.37362,0.264584 0,0.158853 -1.06354,0.264583 -2.66145,0.264583 -1.70692,0 -2.6028,-0.09489 -2.49793,-0.264583 0.0899,-0.145521 0.33841,-0.264584 0.55216,-0.264584 0.3188,0 0.3606,-0.320873 0.23265,-1.785937 -0.27201,-3.114403 -0.18134,-2.976563 -1.9579,-2.976563 h -1.55988 l -0.19058,2.033725 c -0.18929,2.020036 -0.18544,2.037835 0.57274,2.644519 l 0.76331,0.610796 -1.69228,0.0013 -1.69228,0.0013 0.67022,-0.621133 z m 4.62428,-6.191888 c -0.0815,-0.691224 -0.34522,-3.399896 -0.58609,-6.019271 -0.24086,-2.619375 -0.50466,-4.941094 -0.58624,-5.159375 -0.1406,-0.376261 -1.62887,10.168052 -1.65249,11.707813 -0.0109,0.709054 0.0269,0.727604 1.4809,0.727604 h 1.49207 z m 10.52548,6.548438 c 0.0899,-0.145521 0.39462,-0.264584 0.67708,-0.264584 0.50097,0 0.51355,-0.300905 0.51355,-12.285551 V 66.716029 l -0.72761,-0.110223 c -0.40018,-0.06062 0.72316,-0.128061 2.49632,-0.149865 4.38206,-0.05388 5.26983,0.347721 6.63843,3.003066 0.5964,1.157107 0.683,1.654535 0.69099,3.96875 0.005,1.522357 -0.13876,3.076774 -0.33917,3.660714 -0.70026,2.040353 -2.66809,3.615328 -4.51713,3.615328 h -0.80225 v 5.291667 c 0,5.061646 0.0223,5.291666 0.51355,5.291666 0.28245,0 0.58714,0.119063 0.67707,0.264584 0.10544,0.17059 -0.9285,0.264583 -2.91041,0.264583 -1.98192,0 -3.01585,-0.09399 -2.91042,-0.264583 z m 6.3311,-11.528275 c 0.35411,-0.35411 0.41578,-1.327269 0.41578,-6.561667 0,-6.613498 -0.034,-6.780892 -1.37584,-6.780892 h -0.74083 v 6.879167 6.879167 h 0.64256 c 0.35341,0 0.82966,-0.187098 1.05833,-0.415775 z m 5.17828,11.528275 c 0,-0.145521 0.17859,-0.264584 0.39687,-0.264584 0.34464,0 0.39688,-1.131829 0.39688,-8.598958 0,-7.467129 -0.0522,-8.598959 -0.39688,-8.598959 -0.21828,0 -0.39687,-0.119062 -0.39687,-0.264583 0,-0.151191 0.79375,-0.264583 1.85208,-0.264583 h 1.85208 l 0.004,1.124479 0.004,1.124479 0.59812,-1.05609 c 0.87633,-1.547333 2.46246,-1.618083 3.22482,-0.14384 0.52352,1.012383 0.51793,3.165192 -0.0102,3.919183 -0.47729,0.681426 -1.48755,0.771723 -1.98107,0.177067 -0.48575,-0.585296 -0.41932,-2.475749 0.12377,-3.522033 0.30746,-0.592323 0.37375,-0.97867 0.19808,-1.154343 -0.40184,-0.401841 -0.84164,0.0039 -1.46461,1.35118 -0.52672,1.139126 -0.57112,1.724057 -0.65015,8.564814 -0.0841,7.276505 -0.0799,7.342187 0.46302,7.342187 0.30131,0 0.54784,0.119063 0.54784,0.264584 0,0.156789 -0.97014,0.264583 -2.38125,0.264583 -1.41111,0 -2.38125,-0.107794 -2.38125,-0.264583 z m 18.12396,0 c 0.0899,-0.145521 0.33509,-0.264584 0.54478,-0.264584 0.32413,0 0.38126,-1.288354 0.38126,-8.598958 0,-8.422569 -0.0109,-8.598959 -0.52917,-8.598959 -0.29104,0 -0.52917,-0.119062 -0.52917,-0.264583 0,-0.145521 0.23813,-0.264583 0.52917,-0.264583 0.48037,0 0.5293,-0.176882 0.53064,-1.91823 0.002,-2.438553 0.38193,-3.797543 1.32604,-4.741651 0.72579,-0.725797 1.59686,-0.92955 2.49709,-0.584099 0.54277,0.20828 1.20248,1.467395 1.20248,2.295041 0,0.690028 -0.73661,1.509355 -1.35698,1.509355 -1.15182,0 -1.41764,-1.846723 -0.36508,-2.536383 0.36255,-0.237554 0.59365,-0.537956 0.51355,-0.667557 -0.25146,-0.406874 -1.33623,-0.256723 -1.79319,0.248211 -0.63057,0.69677 -0.54549,2.00483 0.28259,4.344792 l 0.72566,2.050521 h 0.99672 c 0.5482,0 0.99673,0.119062 0.99673,0.264583 0,0.145521 -0.47788,0.264583 -1.06195,0.264583 h -1.06195 l 0.0698,8.665105 0.0698,8.665104 1.05834,0.160891 c 0.63176,0.09604 -0.20101,0.176027 -2.06614,0.198437 -2.02473,0.02433 -3.06691,-0.05558 -2.96095,-0.227036 z m 31.6177,0 c 0,-0.145521 0.1786,-0.264584 0.39688,-0.264584 0.34465,0 0.39687,-1.131829 0.39687,-8.598958 0,-7.467129 -0.0522,-8.598959 -0.39687,-8.598959 -0.21828,0 -0.39688,-0.119062 -0.39688,-0.264583 0,-0.151191 0.79375,-0.264583 1.85209,-0.264583 h 1.85208 v 8.863542 c 0,7.702314 0.052,8.863541 0.39688,8.863541 0.21828,0 0.39687,0.119063 0.39687,0.264584 0,0.155638 -0.92604,0.264583 -2.24896,0.264583 -1.32291,0 -2.24896,-0.108945 -2.24896,-0.264583 z m 15.08126,0 c 0,-0.145521 0.17859,-0.264584 0.39687,-0.264584 0.34465,0 0.39688,-1.131829 0.39688,-8.598958 0,-7.467129 -0.0522,-8.598959 -0.39688,-8.598959 -0.21828,0 -0.39687,-0.119062 -0.39687,-0.264583 0,-0.151191 0.79375,-0.264583 1.85208,-0.264583 1.83356,0 1.85208,0.0071 1.85208,0.710959 v 0.710959 l 0.74208,-0.710959 c 0.95621,-0.916096 2.62533,-0.992254 3.3841,-0.154411 0.46913,0.518014 0.50938,1.125664 0.58119,8.776282 0.0694,7.386014 0.123,8.254564 0.52916,8.563161 0.38203,0.29025 0.10581,0.344733 -1.78371,0.351845 -1.7389,0.0065 -2.16517,-0.06214 -1.91823,-0.309086 0.2332,-0.233214 0.3175,-2.483048 0.3175,-8.474969 0,-7.185219 -0.0497,-8.176562 -0.41738,-8.317641 -0.22958,-0.08809 -0.61653,0.03879 -0.8599,0.281956 -0.38994,0.389602 -0.45172,1.371288 -0.52006,8.26356 -0.0562,5.667187 0.007,7.923781 0.23082,8.193016 0.26048,0.313862 -0.0254,0.371578 -1.84068,0.371578 -1.25632,0 -2.14905,-0.109911 -2.14905,-0.264583 z m 20.10833,0 c 0,-0.145521 0.1786,-0.264584 0.39688,-0.264584 0.34708,0 0.39687,-1.541248 0.39687,-12.283726 0,-11.476299 -0.0304,-12.291676 -0.46302,-12.404722 -0.25466,-0.06655 0.40018,-0.134813 1.45521,-0.151694 l 1.91823,-0.03069 v 12.435418 c 0,10.650955 0.0547,12.435416 0.38126,12.435416 0.20968,0 0.45485,0.119063 0.54478,0.264584 0.10443,0.168952 -0.70281,0.264583 -2.23335,0.264583 -1.42152,0 -2.39686,-0.107664 -2.39686,-0.264583 z m 30.03021,0 c 0.0899,-0.145521 0.33509,-0.264584 0.54478,-0.264584 0.32414,0 0.38126,-1.288354 0.38126,-8.598958 0,-8.422569 -0.0109,-8.598959 -0.52917,-8.598959 -0.29104,0 -0.52916,-0.119062 -0.52916,-0.264583 0,-0.152871 0.83785,-0.264583 1.98437,-0.264583 h 1.98438 v 0.965168 0.965171 l 0.60584,-0.899025 c 0.48726,-0.723033 0.77949,-0.899023 1.49281,-0.899023 1.27778,0 2.00239,1.05019 2.00239,2.90204 0,1.676273 -0.63376,2.593214 -1.70598,2.468296 -1.03214,-0.120245 -1.32554,-1.639983 -0.68207,-3.533003 0.57261,-1.68457 0.35417,-2.139529 -0.53255,-1.109292 -1.04193,1.210522 -1.1774,2.335528 -1.17896,9.789147 0,5.986666 0.0573,7.077604 0.37978,7.077604 0.20968,0 0.45485,0.119063 0.54478,0.264584 0.1047,0.169383 -0.75211,0.264583 -2.38125,0.264583 -1.62915,0 -2.48595,-0.0952 -2.38125,-0.264583 z m 28.04583,0 c 0.0899,-0.145521 0.3351,-0.264584 0.54478,-0.264584 0.32414,0 0.38126,-1.288354 0.38126,-8.598958 0,-8.422569 -0.0109,-8.598959 -0.52916,-8.598959 -0.29104,0 -0.52917,-0.119062 -0.52917,-0.264583 0,-0.152871 0.83786,-0.264583 1.98438,-0.264583 h 1.98437 v 0.965168 0.965171 l 0.60585,-0.899025 c 0.80896,-1.200391 2.10468,-1.267447 2.93748,-0.152017 1.19092,1.595123 0.51332,4.676953 -1.02833,4.676953 -1.17647,0 -1.52506,-2.01903 -0.6727,-3.896636 0.62021,-1.366266 0.21822,-1.822915 -0.68268,-0.775536 -1.01923,1.1849 -1.1566,2.343251 -1.15814,9.765401 0,5.986666 0.0573,7.077604 0.37979,7.077604 0.20968,0 0.45484,0.119063 0.54477,0.264584 0.1047,0.169383 -0.7521,0.264583 -2.38125,0.264583 -1.62914,0 -2.48594,-0.0952 -2.38125,-0.264583 z m 26.32605,0 c 0,-0.145521 0.17859,-0.264584 0.39687,-0.264584 0.34465,0 0.39688,-1.131829 0.39688,-8.598958 0,-7.467129 -0.0522,-8.598959 -0.39688,-8.598959 -0.21828,0 -0.39687,-0.119062 -0.39687,-0.264583 0,-0.151191 0.79375,-0.264583 1.85208,-0.264583 h 1.85208 v 8.863542 c 0,7.702314 0.052,8.863541 0.39688,8.863541 0.21828,0 0.39687,0.119063 0.39687,0.264584 0,0.155638 -0.92604,0.264583 -2.24896,0.264583 -1.32291,0 -2.24895,-0.108945 -2.24895,-0.264583 z m 15.08124,0 c 0,-0.145521 0.1786,-0.264584 0.39688,-0.264584 0.34464,0 0.39687,-1.131829 0.39687,-8.598958 0,-7.467129 -0.0522,-8.598959 -0.39687,-8.598959 -0.21828,0 -0.39688,-0.119062 -0.39688,-0.264583 0,-0.151191 0.79375,-0.264583 1.85208,-0.264583 1.82473,0 1.85209,0.01032 1.85209,0.697536 v 0.69754 l 0.69755,-0.69754 c 0.90871,-0.908714 2.66784,-0.981051 3.42863,-0.140988 0.46913,0.518014 0.50937,1.125664 0.58118,8.776282 0.0694,7.386014 0.123,8.254564 0.52917,8.563161 0.38229,0.290462 0.11535,0.344728 -1.7308,0.351845 -1.28442,0.005 -2.18282,-0.100481 -2.18282,-0.256169 0,-0.145521 0.11907,-0.264584 0.26459,-0.264584 0.17071,0 0.26458,-2.913184 0.26458,-8.210386 0,-7.233412 -0.0497,-8.229447 -0.41738,-8.370557 -0.22958,-0.08809 -0.61653,0.03879 -0.85989,0.281956 -0.38995,0.389602 -0.45173,1.371288 -0.52007,8.26356 -0.0562,5.667187 0.007,7.923781 0.23082,8.193016 0.26049,0.313862 -0.0254,0.371578 -1.84068,0.371578 -1.25632,0 -2.14905,-0.109911 -2.14905,-0.264583 z M 179.64911,69.062132 c -0.29104,-0.291042 -0.52917,-0.826823 -0.52917,-1.190625 0,-0.363802 0.23813,-0.899584 0.52917,-1.190625 0.29104,-0.291042 0.82682,-0.529167 1.19062,-0.529167 0.36381,0 0.89959,0.238125 1.19063,0.529167 0.29104,0.291041 0.52917,0.826823 0.52917,1.190625 0,0.363802 -0.23813,0.899583 -0.52917,1.190625 -0.29104,0.291042 -0.82682,0.529167 -1.19063,0.529167 -0.3638,0 -0.89958,-0.238125 -1.19062,-0.529167 z m 119.59167,0 c -0.29104,-0.291042 -0.52917,-0.826823 -0.52917,-1.190625 0,-0.363802 0.23813,-0.899584 0.52917,-1.190625 0.29104,-0.291042 0.82682,-0.529167 1.19062,-0.529167 0.36381,0 0.89959,0.238125 1.19063,0.529167 0.29104,0.291041 0.52917,0.826823 0.52917,1.190625 0,0.363802 -0.23813,0.899583 -0.52917,1.190625 -0.29104,0.291042 -0.82682,0.529167 -1.19063,0.529167 -0.3638,0 -0.89958,-0.238125 -1.19062,-0.529167 z M 26.831318,50.840103 c 1.58169,-0.703017 2.73178,-1.778434 3.53965,-3.309832 l 0.71459,-1.354598 0.073,-18.703015 0.073,-18.7030217 0.8327,-0.0824 c 0.45798,-0.0453 0.88155,-0.23123 0.94126,-0.41313 0.0843,-0.25685 -1.02414,-0.33073 -4.96261,-0.33073 -3.9385,0 -5.04691,0.0739 -4.96253,0.33073 0.0598,0.1819 0.54593,0.36768 1.08038,0.41285 l 0.97174,0.0821 V 28.103119 c 0,20.574501 -0.0214,20.941967 -1.27357,21.926971 -0.72192,0.567857 -2.15725,0.669192 -3.0433,0.214861 -1.5873,-0.813898 -3.17607,-3.157956 -2.68212,-3.95718 0.11678,-0.18895 0.59435,-0.233328 1.32761,-0.12337 1.94799,0.292118 2.89607,-0.49476 3.404,-2.825221 0.43742,-2.006992 -1.04384,-4.439566 -2.70337,-4.439566 -1.19294,0 -2.53959,1.325822 -2.97237,2.926398 -0.47477,1.755881 -0.20577,4.739238 0.56181,6.230789 1.59991,3.108918 5.59345,4.333031 9.08019,2.783285 z m 13.34925,0.115199 c 0.40389,-0.208862 1.18114,-0.874291 1.72722,-1.478737 0.54608,-0.604446 1.01338,-1.058638 1.03845,-1.009317 0.0251,0.04932 0.2837,0.563081 0.57474,1.141688 0.64273,1.277784 1.4434,1.717071 3.13898,1.722212 1.58897,0.0048 3.15238,-0.815332 3.9191,-2.05591 0.43741,-0.707747 0.48201,-0.952918 0.21844,-1.200703 -0.25487,-0.239599 -0.36052,-0.23104 -0.4584,0.03713 -0.29107,0.797523 -1.3222,1.720112 -1.74231,1.558901 -0.38981,-0.149585 -0.43862,-1.465083 -0.50472,-13.604203 -0.0731,-13.421296 -0.0739,-13.439666 -0.66328,-14.265876 -0.98293,-1.378 -2.2226,-1.81856 -5.11714,-1.81856 -2.29518,0 -2.6783,0.0747 -4.09223,0.7978 -1.98985,1.01765 -3.04622,2.57504 -3.09138,4.557573 -0.0545,2.390097 1.00603,3.774276 2.8897,3.771759 2.6995,-0.0036 3.96569,-3.670599 1.87489,-5.429885 -0.6707,-0.564357 -1.04904,-0.682997 -1.9493,-0.611257 -0.96784,0.0771 -1.08601,0.031 -0.88453,-0.34547 0.74524,-1.3924 2.96616,-2.33891 4.29903,-1.83215 1.38887,0.52804 1.52087,1.09867 1.4418,6.232898 l -0.0724,4.701521 -2.91042,1.102765 c -1.60073,0.60652 -3.17707,1.249408 -3.50299,1.428634 -1.28128,0.704609 -1.3918,1.38158 -1.3918,8.525587 v 6.654181 l 0.89958,0.899583 c 0.79014,0.790138 1.06536,0.899583 2.2621,0.899583 0.74938,0 1.69297,-0.170886 2.09687,-0.379747 z m 0.007,-7.870081 c -0.0361,-9.052764 -0.10183,-8.407988 0.95986,-9.41111 1.76009,-1.66301 1.75343,-1.687381 1.66148,6.085416 -0.0804,6.799019 -0.0961,6.973179 -0.74362,8.26823 -0.45707,0.914143 -0.8454,1.349041 -1.25677,1.407464 l -0.59531,0.08455 -0.0256,-6.434547 z m 45.56627,7.670715 c 2.14573,-1.205965 3.71265,-4.578448 4.21329,-9.068236 0.2925,-2.623111 0.19139,-3.581819 -0.37773,-3.581819 -0.22837,0 -0.42128,0.972082 -0.62714,3.160202 -0.52196,5.547993 -2.46696,9.010632 -5.06138,9.010632 -0.59136,0 -0.94085,-0.194953 -1.28209,-0.715158 -0.4109,-0.626407 -0.47941,-1.529369 -0.55204,-7.276042 l -0.0829,-6.560884 h 4.11781 4.11781 v -2.758979 c 0,-6.741584 -1.5363,-11.217195 -4.31158,-12.560685 -3.63115,-1.75782 -6.86345,0.74777 -8.44671,6.547639 -0.4893,1.792423 -0.5537,2.770085 -0.56041,8.507442 -0.01,8.318053 0.39301,10.995147 2.01489,13.393291 1.58754,2.347375 4.57025,3.177254 6.83819,1.902597 z m -3.73256,-22.241201 c 0.004,-7.187688 0.10101,-7.683848 1.52365,-7.821988 0.71532,-0.0694 0.89698,0.03 1.11845,0.61254 0.14997,0.39446 0.26441,3.493585 0.26441,7.160527 v 6.465067 h -1.45521 -1.4552 l 0.004,-6.416146 z m 11.91663,21.743943 0.8525,-1.07637 1.01691,0.992987 c 0.89324,0.87222 1.20254,1.005504 2.54317,1.095904 2.133912,0.143891 3.659842,-0.828913 4.735062,-3.018663 0.67429,-1.373235 0.75737,-1.816119 0.73702,-3.928946 -0.0289,-3.001129 -0.84969,-5.535761 -3.80175,-11.739817 -2.292182,-4.817255 -3.451362,-7.964847 -3.451362,-9.371676 0,-1.98287 1.90043,-2.99939 3.14024,-1.67967 1.122132,1.19445 2.110012,4.851905 2.567902,9.507219 0.11346,1.153634 0.28374,1.761699 0.47546,1.697884 0.35053,-0.116675 0.57573,-12.887893 0.22725,-12.887893 -0.11722,0 -0.62204,0.34137 -1.12182,0.7586 l -0.90868,0.7586 -0.9334,-0.6102 c -1.874052,-1.22515 -3.638182,-1.15528 -5.187992,0.20547 -1.45901,1.28103 -2.04704,2.672135 -2.0462,4.840649 0.001,2.435143 0.45862,3.904904 3.24478,10.420221 2.77313,6.484871 3.46525,8.610634 3.50179,10.755453 0.0316,1.851416 -0.32507,2.686021 -1.30729,3.059459 -0.55148,0.209674 -0.83817,0.163126 -1.37297,-0.222925 -1.45112,-1.047499 -2.98556,-5.412862 -3.34807,-9.525005 -0.2182,-2.475212 -0.54645,-3.545081 -0.91089,-2.968864 -0.27712,0.438158 -0.35022,13.564405 -0.077,13.837563 0.3301,0.330108 0.57222,0.177234 1.42539,-0.89998 z m 36.863492,0.204349 c 0.50707,-0.682107 0.51877,-0.795192 0.15027,-1.451716 -0.21979,-0.391592 -0.72163,-0.82523 -1.1152,-0.963642 -0.59389,-0.208857 -0.82873,-0.145362 -1.38088,0.373356 -0.80726,0.758386 -0.85278,1.668209 -0.1201,2.400885 0.72697,0.726975 1.77174,0.574921 2.46591,-0.358883 z m 51.52463,0.590552 c 0.28924,-0.154807 0.75723,-0.660823 1.03994,-1.124479 l 0.51401,-0.84301 v 1.000093 1.000091 l 3.30816,-0.07405 c 1.92241,-0.04303 3.3355,-0.184883 3.37344,-0.338635 0.0359,-0.145521 -0.26215,-0.302257 -0.66233,-0.348303 l -0.7276,-0.08372 V 29.092472 7.9433763 h -3.57188 c -1.96453,0 -3.57188,0.10633 -3.57188,0.23628 0,0.28661 0.65329,0.55747 1.34457,0.55747 0.48627,0 0.50752,0.26703 0.50752,6.3774107 v 6.37741 l -0.93525,-0.82116 c -1.54281,-1.3546 -3.3764,-0.95592 -4.75541,1.03398 -1.40178,2.022762 -2.24086,7.666042 -2.24194,15.078196 -0.001,8.135263 1.17814,12.911881 3.50744,14.206215 0.73089,0.406119 2.17033,0.438427 2.86922,0.0644 z m -0.78949,-1.13058 c -0.22392,-0.269785 -0.28687,-4.126021 -0.23659,-14.492875 l 0.0685,-14.125287 h 0.63291 c 0.38623,0 0.85026,0.29103 1.19062,0.74675 0.54629,0.73144 0.55917,1.00258 0.62897,13.229166 0.0669,11.724413 0.0415,12.537578 -0.41878,13.39073 -0.6598,1.222991 -1.44958,1.752809 -1.86561,1.251516 z m 19.25262,1.028689 c 2.58815,-1.338381 4.50855,-5.925505 4.51945,-10.795286 0.003,-1.565674 -0.0814,-2.050521 -0.3592,-2.050521 -0.43362,0 -0.69453,1.139574 -0.69453,3.033459 0,0.758896 -0.23823,2.311331 -0.52943,3.449857 -0.87614,3.425714 -2.30354,5.356437 -4.14237,5.603076 -0.82145,0.110181 -1.12226,0.02352 -1.54736,-0.445828 -0.49329,-0.544581 -0.53285,-1.020995 -0.60659,-7.302201 l -0.0789,-6.719613 h 3.98148 3.98148 v -3.794135 c 0,-5.633686 -0.92612,-8.827039 -3.14005,-10.827189 -2.37834,-2.14868 -5.70841,-1.45913 -7.66297,1.58675 -1.83198,2.854892 -2.42745,6.05525 -2.42398,13.027634 0.005,9.415138 1.12996,13.466403 4.18936,15.082669 1.17054,0.618387 3.46184,0.695208 4.51358,0.151328 z M 197.37571,28.37517 c 0,-5.575523 0.0632,-6.645893 0.42247,-7.158853 0.56096,-0.80089 1.69142,-0.68464 2.14719,0.22082 0.23988,0.47651 0.33404,2.45538 0.33687,7.077598 l 0.004,6.416146 h -1.45521 -1.4552 z m 26.70136,21.888789 0.86074,-1.071089 1.162,1.071089 c 1.00335,0.924859 1.32651,1.071089 2.36704,1.071089 1.65269,0 2.76945,-0.525695 3.8848,-1.828731 1.18081,-1.37953 1.66973,-3.05354 1.6011,-5.482071 -0.073,-2.58386 -0.99838,-5.362705 -3.68882,-11.07774 -2.57787,-5.475888 -3.51947,-8.076427 -3.51947,-9.720199 0,-1.92724 1.42484,-2.90577 2.81417,-1.93266 1.13768,0.79688 2.26057,4.546505 2.72084,9.08565 0.23344,2.302361 0.33565,2.59888 0.7974,2.313506 0.36079,-0.222989 0.39306,-12.478826 0.0334,-12.701086 -0.13682,-0.0846 -0.67159,0.21752 -1.18838,0.67126 l -0.93961,0.825 -0.80381,-0.67635 c -2.03178,-1.70965 -5.01536,-0.96175 -6.54523,1.64072 -0.6422,1.09241 -0.72345,1.49137 -0.70924,3.482701 0.019,2.653787 0.51816,4.267758 3.16071,10.21851 2.42414,5.458852 3.32184,8.107114 3.49337,10.305563 0.15968,2.046526 -0.0694,2.760724 -1.10302,3.437938 -0.56031,0.367133 -0.7171,0.370075 -1.38261,0.02593 -1.50436,-0.777941 -2.71311,-4.051776 -3.46307,-9.379659 -0.2516,-1.787358 -0.57637,-3.245678 -0.72173,-3.240707 -0.16725,0.0057 -0.29015,2.58291 -0.33473,7.020724 -0.0783,7.788167 -0.0549,7.880557 1.5041,5.940603 z m 21.90091,0.12704 c 1.44555,-1.142743 2.62496,-3.66508 3.14635,-6.728868 0.55316,-3.250435 0.40483,-15.211065 -0.21493,-17.331571 -0.95236,-3.258633 -2.24006,-5.170533 -4.03002,-5.983603 -3.2934,-1.49598 -6.37498,0.47301 -7.85469,5.018795 -0.49982,1.535533 -0.58817,2.531052 -0.69281,7.808058 -0.21997,11.095249 0.80087,15.551364 4.01418,17.522145 0.92755,0.568899 1.33665,0.651706 2.85379,0.577644 1.49696,-0.07307 1.92689,-0.209667 2.77813,-0.8826 z m -4.08001,-0.56551 c -0.43386,-0.661985 -0.46913,-1.745718 -0.46913,-14.412322 0,-13.6273 0.003,-13.69936 0.56422,-14.26085 0.6907,-0.69084 1.47802,-0.5116 1.90916,0.43464 0.40507,0.889 0.43413,27.689043 0.0309,28.442568 -0.40577,0.758206 -1.47471,0.651034 -2.0351,-0.204036 z m 58.65183,1.119622 c 0.41474,-0.214466 1.18078,-0.888479 1.70236,-1.497809 l 0.94829,-1.107874 0.39452,0.9442 c 0.58941,1.410689 1.55699,2.05142 3.09785,2.05142 0.71265,0 1.68071,-0.160858 2.15124,-0.357462 0.95494,-0.398997 2.64755,-2.179217 2.49814,-2.62744 -0.1901,-0.570328 -0.60147,-0.418415 -1.12717,0.416256 -0.30827,0.489439 -0.75637,0.848855 -1.05834,0.848855 -0.51321,0 -0.52633,-0.267454 -0.65598,-13.361459 -0.12636,-12.762261 -0.15602,-13.401151 -0.66146,-14.246531 -1.05814,-1.76987 -4.31775,-2.58958 -7.5934,-1.90956 -3.40948,0.70781 -5.54077,3.809371 -4.71781,6.865612 0.76004,2.822565 4.80753,2.840678 5.56572,0.0249 0.59579,-2.212504 -0.74912,-4.083812 -2.8166,-3.919072 -0.95303,0.0759 -1.07005,0.0293 -0.86884,-0.34671 0.78439,-1.46553 3.0969,-2.38947 4.40759,-1.76101 1.23132,0.5904 1.38499,1.27603 1.38925,6.197802 l 0.004,4.53148 -1.25677,0.529222 c -0.69122,0.291071 -1.85208,0.724355 -2.57969,0.962853 -1.88762,0.618731 -3.37664,1.522449 -3.76139,2.282857 -0.23977,0.473868 -0.33293,2.516989 -0.33576,7.363044 l -0.004,6.707188 0.89958,0.899583 c 0.79013,0.790139 1.06535,0.899584 2.26211,0.899584 0.74938,0 1.70183,-0.175472 2.11656,-0.389938 z m -0.0852,-1.866673 c -0.31311,-0.815919 -0.15539,-13.431785 0.17968,-14.375074 0.21217,-0.597247 0.69122,-1.109102 1.45981,-1.559754 l 1.14401,-0.670777 -0.0857,7.124076 c -0.0847,7.039832 -0.0937,7.139628 -0.76147,8.43892 -0.70605,1.37373 -1.62039,1.866037 -1.93636,1.042609 z M 58.612768,50.788072 c 0.0965,-0.156096 -0.0792,-0.348744 -0.39283,-0.430757 l -0.56735,-0.148368 0.0777,-12.996844 c 0.0741,-12.389803 0.10242,-13.045427 0.60688,-14.036946 0.60213,-1.18352 1.18814,-1.63254 1.81612,-1.39156 0.39325,0.1509 0.43284,1.45858 0.43284,14.298746 v 14.132655 l -0.59075,0.154485 c -0.41784,0.109262 -0.50829,0.236956 -0.309,0.436232 0.41663,0.416631 6.77578,0.234413 6.91945,-0.198271 0.0653,-0.196572 -0.12261,-0.330729 -0.46314,-0.330729 h -0.57295 l 0.0888,-12.898438 c 0.0864,-12.547785 0.10425,-12.931989 0.65831,-14.13258 0.63071,-1.36669 1.53482,-2.05712 2.03678,-1.55541 0.21728,0.21717 0.32281,4.27101 0.37513,14.411693 l 0.0728,14.109528 -0.56245,0.147088 c -0.31041,0.08117 -0.48425,0.273632 -0.38794,0.429476 0.10968,0.177472 1.49584,0.282393 3.7308,0.282393 2.98473,0 3.55626,-0.06378 3.55626,-0.396875 0,-0.246944 -0.24988,-0.396875 -0.66146,-0.396875 h -0.66146 l -0.001,-13.956771 c -10e-4,-13.532007 -0.0172,-13.983427 -0.53496,-14.832587 -0.62335,-1.02243 -1.91481,-1.63772 -3.43745,-1.63772 -1.42189,0 -2.48124,0.57753 -3.40927,1.85864 l -0.75765,1.0459 -0.31674,-0.76468 c -0.50516,-1.21956 -1.44071,-1.92265 -2.75552,-2.07085 -1.68511,-0.18994 -2.41178,0.0612 -3.75202,1.29657 l -1.17491,1.08306 v -1.10043 -1.10042 l -3.08727,0.0745 c -2.17959,0.0526 -3.11954,0.17178 -3.19705,0.40527 -0.0689,0.20756 0.14476,0.33073 0.57373,0.33073 h 0.68351 v 14.684372 14.684375 h -0.66146 c -0.41158,0 -0.66146,0.149931 -0.66146,0.396875 0,0.333092 0.57153,0.396875 3.55626,0.396875 2.23495,0 3.6211,-0.104921 3.73079,-0.282393 z M 123.62354,50.67359 c 0.0362,-0.145521 -0.37806,-0.301376 -0.92046,-0.346342 l -0.98618,-0.08176 -0.0722,-10.303233 c -0.0654,-9.338302 -0.0321,-10.303224 0.35518,-10.303137 0.76078,1.7e-4 1.73371,1.006002 2.35806,2.437779 0.48545,1.11325 0.64147,2.069549 0.76436,4.684871 0.1071,2.279121 0.25576,3.319616 0.48514,3.395485 0.26108,0.08635 0.33073,-2.239976 0.33073,-11.047206 0,-8.80722 -0.0696,-11.13356 -0.33073,-11.04722 -0.22479,0.0743 -0.38579,1.07723 -0.50261,3.1309 -0.0945,1.66184 -0.3637,3.635385 -0.59817,4.385656 -0.45444,1.45428 -1.68069,3.001497 -2.37882,3.001497 -0.38011,0 -0.42301,-1.00634 -0.42301,-9.921873 V 8.7371263 h 1.20376 c 1.8254,0 2.57042,0.52123 3.40584,2.3827907 0.85042,1.89498 2.14577,6.8505 2.38566,9.12659 0.33929,3.21921 0.45092,3.836457 0.69386,3.836457 0.14935,0 0.24838,-3.217477 0.24838,-8.069787 V 7.9433763 h -8.0698 c -4.55893,0 -8.06979,0.1028 -8.06979,0.23628 0,0.30578 0.66679,0.55747 1.47685,0.55747 h 0.63982 V 29.506922 50.276714 h -1.05833 c -0.77103,0 -1.05834,0.109291 -1.05834,0.402587 0,0.348793 0.67181,0.392986 5.02751,0.330729 3.07066,-0.04389 5.05308,-0.174842 5.09324,-0.336441 z m 21.23581,0.126746 c 0.0918,-0.148569 -0.25404,-0.446029 -0.76859,-0.661022 -1.57552,-0.658294 -1.73579,-1.433716 -1.1846,-5.731661 l 0.2992,-2.333022 h 2.57148 2.57147 l 0.30623,3.373438 c 0.44588,4.91163 0.45432,4.828646 -0.49132,4.828646 -0.52917,0 -0.79375,0.132292 -0.79375,0.396875 0,0.337659 0.69085,0.396875 4.6302,0.396875 3.93936,0 4.63021,-0.05922 4.63021,-0.396875 0,-0.264583 -0.26458,-0.396875 -0.79375,-0.396875 -0.50509,0 -0.79375,-0.13511 -0.79375,-0.371525 0,-0.452274 -4.68967,-39.037733 -4.91657,-40.4524237 l -0.16107,-1.00416 -1.61594,0.0781 -1.61594,0.0781 -2.43885,19.1822937 c -1.34137,10.550261 -2.60199,19.718073 -2.80138,20.372917 -0.26571,0.872697 -0.62232,1.359972 -1.33546,1.824821 -0.53512,0.348808 -0.91018,0.735761 -0.83346,0.859896 0.20015,0.32385 5.3335,0.282651 5.53564,-0.04443 z m -1.45863,-9.808652 c 0,-0.63314 2.39237,-19.466057 2.55126,-20.083717 0.13763,-0.53499 2.16229,17.662367 2.20049,19.777602 0.0104,0.574061 -0.0743,0.595312 -2.3705,0.595312 -1.54623,0 -2.38125,-0.101412 -2.38125,-0.289197 z m 21.96041,9.681906 c 0,-0.22483 -0.23718,-0.396875 -0.54713,-0.396875 -0.54679,0 -0.54708,-0.0081 -0.46302,-12.898438 0.0801,-12.284332 0.10931,-12.947957 0.61328,-13.93854 0.60213,-1.18352 1.18814,-1.63253 1.81612,-1.39156 0.3932,0.15089 0.43284,1.45106 0.43284,14.197318 0,12.295807 -0.0491,14.03122 -0.39688,14.03122 -0.21828,0 -0.39687,0.181954 -0.39687,0.404341 0,0.346404 0.51191,0.393793 3.57263,0.33073 2.14783,-0.04425 3.57651,-0.179131 3.58236,-0.338196 0.005,-0.145521 -0.2291,-0.302101 -0.52098,-0.347959 -0.52224,-0.08205 -0.53189,-0.303297 -0.60579,-13.890625 -0.0707,-13.004219 -0.10468,-13.866849 -0.58371,-14.831989 -0.56506,-1.13845 -1.67675,-1.75338 -3.16983,-1.75338 -1.31875,0 -2.26824,0.42588 -3.39916,1.52465 l -0.99219,0.96399 v -1.11203 -1.11203 h -3.14669 c -2.55299,0 -3.17543,0.0749 -3.29899,0.39687 -0.1143,0.29786 0.0437,0.39688 0.63315,0.39688 h 0.78545 V 35.59234 50.276715 h -0.64585 c -0.66389,0 -1.05796,0.324662 -0.75807,0.624554 0.0931,0.09306 1.81622,0.169196 3.82926,0.169196 3.07701,0 3.66007,-0.06322 3.66007,-0.396875 z m 50.27084,0 c 0,-0.278532 -0.28115,-0.396875 -0.94287,-0.396875 h -0.94287 l 0.093,-12.104688 c 0.0894,-11.634465 0.1156,-12.171495 0.6739,-13.824479 0.82536,-2.443681 1.49293,-3.439581 2.30557,-3.439581 0.84847,0 0.8404,0.35094 -0.0524,2.28313 -1.35694,2.936713 -0.73683,6.210321 1.21235,6.400133 1.85259,0.180401 2.99291,-1.398416 3.00133,-4.15539 0.007,-2.147483 -0.58547,-3.711533 -1.81274,-4.789093 -1.63867,-1.43877 -3.34312,-0.87151 -4.57981,1.52422 l -0.78211,1.515123 -0.0127,-1.794083 -0.0127,-1.79408 -3.21952,0.0743 c -2.28569,0.0527 -3.25139,0.17022 -3.32934,0.40502 -0.072,0.21682 0.17116,0.33073 0.70599,0.33073 h 0.81579 v 14.684374 14.684375 h -0.79375 c -0.52917,0 -0.79375,0.132292 -0.79375,0.396875 0,0.33624 0.64675,0.396875 4.23333,0.396875 3.58659,0 4.23334,-0.06063 4.23334,-0.396875 z m 43.27038,0.114482 c 0.0965,-0.156096 -0.0792,-0.348744 -0.39283,-0.430757 l -0.56734,-0.148368 0.0777,-12.996844 c 0.0688,-11.511299 0.12864,-13.109178 0.52329,-13.979616 0.4935,-1.08847 1.67169,-1.6354 2.0923,-0.97127 0.12769,0.2016 0.23397,6.587555 0.23619,14.191019 0.003,12.113837 -0.0451,13.824479 -0.39282,13.824479 -0.21828,0 -0.39688,0.181954 -0.39688,0.404341 0,0.346404 0.51192,0.393793 3.57264,0.33073 2.14784,-0.04425 3.57651,-0.179131 3.58236,-0.338196 0.005,-0.145521 -0.22633,-0.301736 -0.5148,-0.347147 -0.5139,-0.0809 -0.52615,-0.359037 -0.60579,-13.758333 -0.0873,-14.682733 -0.0964,-14.781973 -1.46717,-16.002183 -1.32927,-1.18326 -3.84585,-0.88368 -5.51704,0.65676 l -1.16687,1.07559 v -1.10017 -1.10018 l -3.21952,0.0743 c -2.28569,0.0527 -3.25139,0.17022 -3.32934,0.40502 -0.072,0.21682 0.17116,0.33073 0.70599,0.33073 h 0.81579 v 14.684374 14.684375 h -0.64585 c -0.66389,0 -1.05796,0.324662 -0.75805,0.624554 0.298,0.298019 7.17923,0.192302 7.36803,-0.113197 z m 34.34321,-2.69417 c 0.0943,-1.637109 0.17206,-5.635625 0.17272,-8.885589 0,-4.609812 -0.0715,-5.884889 -0.32954,-5.799233 -0.19055,0.06326 -0.40915,0.829553 -0.51572,1.807985 -0.37706,3.461028 -1.07694,7.056512 -1.82409,9.371108 -1.35203,4.188278 -2.369,5.401141 -4.71808,5.626857 l -1.34263,0.129011 V 29.540586 8.7371363 h 0.77211 c 0.42465,0 0.96044,-0.0723 1.19062,-0.1606 1.20544,-0.46257 -0.0719,-0.63315 -4.74085,-0.63315 -4.669,0 -5.9463,0.17058 -4.74086,0.63315 0.23019,0.0883 0.70644,0.1606 1.05833,0.1606 h 0.63982 V 29.506923 50.276715 h -1.05834 c -0.76435,0 -1.05833,0.110244 -1.05833,0.396875 0,0.344202 1.08323,0.396875 8.16166,0.396875 h 8.16165 z m 25.86828,2.391723 c 0.22463,-0.419714 3.05552,-17.305473 3.42834,-20.449535 0.0172,-0.145521 0.65453,4.3869 1.41618,10.072047 0.76163,5.685147 1.4718,10.477413 1.57816,10.649479 0.10676,0.172739 0.78137,0.312849 1.50633,0.312849 1.10858,0 1.35321,-0.09267 1.57157,-0.595313 0.14221,-0.327421 1.15075,-6.369843 2.24118,-13.427604 1.09043,-7.05776 2.17731,-13.352304 2.41533,-13.987881 0.23799,-0.63557 0.71519,-1.40118 1.06042,-1.70135 1.17406,-1.02085 0.84402,-1.27312 -1.55511,-1.18865 -2.30182,0.081 -2.81258,0.43679 -1.54734,1.0778 1.29114,0.65412 1.29122,0.65107 -0.33909,10.694517 -0.84561,5.209154 -1.56337,9.498529 -1.59504,9.531945 -0.0317,0.03342 -0.62764,-4.252833 -1.3244,-9.525 -0.69673,-5.272167 -1.32921,-9.913172 -1.40546,-10.313362 -0.13111,-0.68787 -0.0851,-0.7276 0.84248,-0.7276 0.66736,0 0.94591,-0.10578 0.87093,-0.33073 -0.0814,-0.24407 -1.10389,-0.33073 -3.9026,-0.33073 -2.79871,0 -3.82125,0.0867 -3.90261,0.33073 -0.0633,0.1899 0.1115,0.33073 0.41053,0.33073 0.53269,0 0.64749,0.48047 1.26426,5.291664 0.10424,0.813324 -0.23117,3.412509 -1.05849,8.202084 -0.66612,3.856302 -1.22373,7.130521 -1.23913,7.276041 -0.0431,0.407123 -2.59667,-19.215539 -2.60818,-20.042189 -0.009,-0.63862 0.0896,-0.7276 0.80566,-0.7276 0.53506,0 0.77787,-0.11382 0.70556,-0.33073 -0.0811,-0.24333 -1.07744,-0.33073 -3.77031,-0.33073 -2.69288,0 -3.68919,0.0874 -3.77031,0.33073 -0.0606,0.1819 0.0783,0.33073 0.30868,0.33073 0.2304,0 0.42678,0.0298 0.43641,0.0661 0.01,0.0364 0.8895,6.694073 1.9553,14.794877 1.06579,8.100803 2.01744,14.8576 2.11478,15.015104 0.0973,0.157504 0.76108,0.286372 1.47498,0.286372 1.06838,0 1.35337,-0.103452 1.61099,-0.58484 z m 35.42438,0.187965 c 0,-0.286631 -0.29398,-0.396875 -1.05833,-0.396875 h -1.05833 v -10.31875 c 0,-7.127127 0.0872,-10.31875 0.28196,-10.31875 0.46448,0 1.38531,0.570076 1.8791,1.163325 0.90067,1.082098 1.32728,2.872412 1.47235,6.178862 0.10994,2.505877 0.22479,3.241146 0.50626,3.241146 0.30429,0 0.35271,-1.809549 0.29501,-11.024359 -0.0487,-7.780332 -0.15539,-11.053122 -0.36246,-11.122102 -0.19772,-0.0659 -0.34144,0.87595 -0.44074,2.88842 -0.081,1.64239 -0.34107,3.612921 -0.57785,4.378956 -0.4649,1.504053 -1.67452,3.091815 -2.52486,3.314187 -0.52176,0.136443 -0.52877,0.0054 -0.52877,-9.891123 V 8.7371363 h 1.48166 c 1.32197,0 1.57531,0.0936 2.35051,0.86883 1.38128,1.3812707 3.11764,7.3865707 3.52943,12.2066907 0.11139,1.30381 0.30396,2.136696 0.50975,2.20486 0.25977,0.08604 0.33073,-1.62679 0.33073,-7.98229 V 7.9433863 h -8.09183 c -6.35503,0 -8.06852,0.071 -7.9832,0.33072 0.0597,0.18191 0.54592,0.36769 1.08038,0.41285 l 0.97173,0.0821 V 29.52288 50.276699 H 345.558 c -1.00484,0 -1.50762,0.27188 -1.15493,0.624554 0.0931,0.09306 2.41152,0.169196 5.15218,0.169196 4.25291,0 4.98297,-0.05814 4.98297,-0.396875 z m 15.875,0 c 0,-0.264583 -0.26458,-0.396875 -0.79375,-0.396875 h -0.79375 V 35.187321 20.097927 l -3.21953,0.0743 c -2.28568,0.0527 -3.25138,0.17022 -3.32933,0.40502 -0.072,0.21682 0.17116,0.33073 0.70599,0.33073 h 0.81579 v 14.684374 14.684375 h -0.66146 c -0.41158,0 -0.66146,0.149931 -0.66146,0.396875 0,0.33514 0.61735,0.396875 3.96875,0.396875 3.3514,0 3.96875,-0.06173 3.96875,-0.396875 z m 9.92188,0 c 0,-0.145521 -0.44649,-0.301535 -0.99219,-0.346702 l -0.99219,-0.08212 V 39.868902 c 0,-5.706727 0.12123,-11.342653 0.2694,-12.524285 0.46638,-3.719502 1.70582,-6.43665 2.93611,-6.43665 0.79759,0 0.79176,0.42137 -0.0299,2.1582 -1.54128,3.257981 -0.82309,6.573044 1.42399,6.573044 1.54755,0 2.80874,-1.908228 2.80874,-4.249711 0,-2.701303 -1.89365,-5.539873 -3.69573,-5.539873 -1.02314,0 -2.45102,1.25479 -3.08991,2.71535 l -0.49041,1.121109 -0.0784,-1.793979 -0.0784,-1.79398 -3.20725,0.0742 c -2.27592,0.0526 -3.23914,0.17023 -3.31706,0.40492 -0.072,0.21681 0.17116,0.33073 0.70599,0.33073 h 0.81579 v 14.68437 14.684375 h -0.64585 c -0.66976,0 -1.05727,0.32534 -0.7516,0.631015 0.28863,0.288642 8.40891,0.06254 8.40891,-0.23414 z m 13.62604,0 c 0,-0.218281 -0.18181,-0.396875 -0.40403,-0.396875 -0.35785,0 -0.39563,-1.503574 -0.33072,-13.163021 0.0711,-12.768117 0.0899,-13.194771 0.6268,-14.221357 0.5802,-1.10933 1.57054,-1.54829 1.99221,-0.88304 0.12337,0.19463 0.22613,6.634423 0.22836,14.310647 0.004,13.781733 -0.003,13.956771 -0.52512,13.956771 -0.29398,0 -0.52917,0.17639 -0.52917,0.396875 0,0.332425 0.55856,0.396875 3.43959,0.396875 2.88102,0 3.43958,-0.06445 3.43958,-0.396875 0,-0.218281 -0.17859,-0.396875 -0.39688,-0.396875 -0.34708,0 -0.39687,-1.541955 -0.39687,-12.290102 0,-13.307092 0.097,-14.469916 1.3208,-15.839636 0.6354,-0.71111 0.79478,-0.77553 1.16298,-0.46997 0.38272,0.31763 0.42664,1.80799 0.42664,14.476895 0,12.377222 -0.0491,14.122813 -0.39688,14.122813 -0.21828,0 -0.39687,0.181954 -0.39687,0.404341 0,0.346404 0.51191,0.393793 3.57264,0.33073 2.14783,-0.04425 3.5765,-0.179131 3.58235,-0.338196 0.005,-0.145521 -0.22915,-0.302112 -0.52112,-0.347977 -0.52261,-0.0821 -0.532,-0.301686 -0.60579,-14.155209 -0.0717,-13.458197 -0.0975,-14.105117 -0.59207,-14.835517 -0.63007,-0.93055 -1.87637,-1.48525 -3.33703,-1.48525 -1.52204,0 -2.65784,0.61381 -3.4789,1.8801 l -0.70049,1.08031 -0.5629,-1.10335 c -0.62309,-1.22139 -1.74725,-1.85706 -3.28411,-1.85706 -1.32223,0 -2.24237,0.42088 -3.24551,1.48452 l -0.88125,0.9344 v -1.08531 -1.08532 l -3.21953,0.0743 c -2.28568,0.0527 -3.25138,0.17022 -3.32933,0.40502 -0.0689,0.20757 0.1447,0.33073 0.57369,0.33073 h 0.68351 v 14.684374 c 0,14.359157 -0.0114,14.684375 -0.51356,14.684375 -0.55224,0 -0.90162,0.348702 -0.62576,0.624554 0.093,0.09306 1.75667,0.169196 3.69696,0.169196 2.95942,0 3.52778,-0.06394 3.52778,-0.396875 z M 368.45531,12.600047 c 0.75617,-0.75617 0.89957,-1.08915 0.89957,-2.08868 0,-2.2741607 -2.39371,-3.7566907 -4.28353,-2.6529807 -1.93685,1.13119 -2.27576,3.3560107 -0.74445,4.8873007 0.61394,0.61393 0.98374,0.75395 1.99139,0.75395 1.0545,0 1.37041,-0.13299 2.13702,-0.89959 z"
       id="path847" />
  </g>
</svg>
